<svg xmlns="http://www.w3.org/2000/svg" width="55.675" height="64.765" viewBox="0 0 55.675 64.765"><g transform="translate(-0.848 -46.592)"><g transform="translate(0.848 46.592)"><g transform="translate(0 0)"><g transform="translate(21.33 3.278) rotate(-9)"><path d="M.326,19.681a2.525,2.525,0,0,0,1.126.434,52.97,52.97,0,0,0,6-.333A11.411,11.411,0,0,1,6.382,17.2s-.371.753-.719.728c-.853-.063-.737-.846-.795-1.253S2.345,13.9,2.666,13.2s2.463.038,2.463.038S4.108,12.593,3.7,9.883s.787-4.226,2.274-5.742S11.366,2.072,13.9,2.888a4.991,4.991,0,0,1,3.264,4.43,22.179,22.179,0,0,1-.2,3.585c.981-1.524,2.5-.835,2.534-.31s-1.153,2.66-1.091,3.593.264,1.395-.2,1.512a3.27,3.27,0,0,1-1.416-.278,10.088,10.088,0,0,1-.029,1.865A20.431,20.431,0,0,1,15.6,19.5a8.532,8.532,0,0,0,3.551-.279,3.463,3.463,0,0,0,1.773-1.984s.032-13.018.032-14.121S20.032.909,17.456.248,6.422.484,3.189.263.019,2.249.019,2.249V18.791c-.038.549-.051.559.308.889Z" transform="translate(0 0)" fill="#fff"/></g><g transform="translate(0 19.813)"><g transform="translate(0 2.73)"><path d="M391.311,359.693a19.349,19.349,0,0,1-.044-5.764c.152-1.283,2.919-9.541,4.106-11.142s10.922-4.436,10.922-4.436-.293-.581-.659-1.17c-5.388,1-10.966,2.068-14.3,2.785-5.105,1.1-5.193,5.141-5.193,5.141v17.335c0,.062,0,.124.006.187.011.266-.017,1.109-.043,1.882l-.065.026c-.654.242-4.94.819-5.647,1.1a12.873,12.873,0,0,0-5.918,3.318,5.8,5.8,0,0,0-1,6.905,3.661,3.661,0,0,0,.771,1.018c2.97,2.78,7.809,2.52,7.809,2.52,9.025.007,8.767-8.858,8.767-8.858a23.853,23.853,0,0,1,.329-5.352,27.5,27.5,0,0,0,.016-3.983C391.218,360.72,391.266,360.206,391.311,359.693Z" transform="translate(-372.762 -337.181)" fill="#fff"/></g><g transform="translate(33.884)"><path d="M591.4,325.562c-.14-5.09-5.951-4.312-8.122-4.072-.774.082-3.711.581-7.513,1.257a1.546,1.546,0,0,0,.362,1.19c.525.379,2.852.6,3.289,1.1s3.617,1.312,4.564,1.763,2.075,2.707,2.3,3.383.906,1.038,1.353,1.894.677,4.195.767,4.961.478,1.774.117,2.406a1.5,1.5,0,0,0-.213,1.685c.315.857.227.949.078,2.763-.215,2.635-5.132,5.295-5.132,5.295l-3.8.212a14.751,14.751,0,0,1-1.6.485,15.458,15.458,0,0,0-6.137,3.439c-3.1,2.591-1.919,6.311-1.294,7.545a3.932,3.932,0,0,0,.829,1.093c3.19,2.987,8.39,2.708,8.39,2.708,12.112-.3,11.763-9.521,11.763-9.521S591.543,330.651,591.4,325.562Z" transform="translate(-569.674 -321.301)" fill="#fff"/></g></g><g transform="translate(18.935 20.768) rotate(-8)"><g transform="translate(9.283 13.125)"><path d="M1.415,2.454A1.779,1.779,0,0,1,2.4,1.444c.175-.07.526-.175.618-.317C3.331.65,2.964-.091,2.439.009A4.786,4.786,0,0,0,.525.668,4.808,4.808,0,0,0,0,2" transform="translate(0.114 0.116)" fill="#fff"/><path d="M1.64,2.606l-.222-.072A1.886,1.886,0,0,1,2.476,1.45l.114-.043a1.257,1.257,0,0,0,.45-.229A.683.683,0,0,0,3.011.451.439.439,0,0,0,2.574.239,4.477,4.477,0,0,0,.725.862,4.476,4.476,0,0,0,.231,2.147L0,2.09A4.624,4.624,0,0,1,.552.7,4.991,4.991,0,0,1,2.528.009.659.659,0,0,1,3.2.319a.911.911,0,0,1,.03.988,1.2,1.2,0,0,1-.566.322l-.108.04A1.666,1.666,0,0,0,1.64,2.606Z" transform="translate(0 0)" fill="#fff"/></g><g transform="translate(0 0)"><path d="M18.009.856s0-1.2-1.4-.76c0,0-6.195,10.071-6.624,10.622S5.744,18.31,5.132,19.411.109,27.4.012,27.493s.439.719.8.772a2.553,2.553,0,0,0,.928-.145s3.961-7.328,4.4-8.159,5.315-8.428,5.834-9.107S15.7,4.83,16.3,3.812,18.009.856,18.009.856Z" transform="translate(0.208 0.212)" fill="#fff"/><path d="M1.151,28.694a1.176,1.176,0,0,1-.165-.011,1.6,1.6,0,0,1-.964-.831.263.263,0,0,1,.049-.284c.15-.2,4.476-6.944,5.088-8.039.146-.261.472-.856.89-1.619,1.847-3.371,3.677-6.7,3.988-7.1C10.455,10.269,16.586.3,16.648.2l.04-.065.072-.023A1.359,1.359,0,0,1,18.006.2a1.153,1.153,0,0,1,.412.87V1.12l-.026.047c-.009.021-1.115,1.955-1.71,2.959-.613,1.038-3.811,6.373-4.339,7.065-.548.717-5.386,8.269-5.817,9.078s-4.364,8.088-4.4,8.161l-.038.069-.075.026a3.03,3.03,0,0,1-.86.169Zm-.725-.935a1.317,1.317,0,0,0,.619.518,2.129,2.129,0,0,0,.759-.112c.412-.762,3.952-7.311,4.364-8.087.433-.815,5.3-8.413,5.852-9.135.494-.642,3.574-5.775,4.312-7.025.539-.912,1.5-2.584,1.679-2.9a.712.712,0,0,0-.247-.494.938.938,0,0,0-.809-.044c-.584.949-6.176,10.037-6.595,10.578-.317.412-2.682,4.728-3.952,7.047-.419.764-.745,1.36-.892,1.622C4.96,20.719.99,26.935.426,27.758Zm-.037.058a.356.356,0,0,1-.027.036.172.172,0,0,0,.027-.036Z" transform="translate(0)" fill="#fff"/></g><g transform="translate(10.843 28.986)"><path d="M0,0" fill="none" stroke="#fff" stroke-miterlimit="10" stroke-width="0.622"/></g><g transform="translate(7.219 10.725)"><path d="M.081,1.137A.741.741,0,0,1,.538.087,2.726,2.726,0,0,1,3.1.757c.254.511.252,1.091-.469,1.173S1.464,1.257.081,1.137Z" transform="translate(0.109 0.117)" fill="#fff"/><path d="M2.631,2.17a1.946,1.946,0,0,1-.9-.3,3.781,3.781,0,0,0-1.555-.5L.112,1.365.084,1.3A1.006,1.006,0,0,1,.059.561.864.864,0,0,1,.609.094a2.789,2.789,0,0,1,2.7.73,1.07,1.07,0,0,1,.082.973.774.774,0,0,1-.641.368A1.111,1.111,0,0,1,2.631,2.17ZM.274,1.144a4.059,4.059,0,0,1,1.565.517,1.542,1.542,0,0,0,.884.269.558.558,0,0,0,.463-.247A.864.864,0,0,0,3.1.925,2.656,2.656,0,0,0,.685.314.643.643,0,0,0,.274.649a.733.733,0,0,0,0,.5Z" transform="translate(0 0)" fill="#fff"/></g><g transform="translate(9.598 8.795)"><path d="M.06.837A.547.547,0,0,1,.4.063,2.008,2.008,0,0,1,2.284.557c.189.375.189.8-.346.865S1.08.925.06.837Z" transform="translate(0.081 0.089)" fill="#fff"/><path d="M1.939,1.6a1.435,1.435,0,0,1-.659-.222A2.785,2.785,0,0,0,.133,1.011l-.054,0L.063.961A.741.741,0,0,1,.044.413.637.637,0,0,1,.45.07,2.059,2.059,0,0,1,2.442.607a.787.787,0,0,1,.061.718A.571.571,0,0,1,2.03,1.6.809.809,0,0,1,1.939,1.6ZM.2.844a2.992,2.992,0,0,1,1.153.381,1.124,1.124,0,0,0,.651.2.412.412,0,0,0,.342-.182A.636.636,0,0,0,2.287.683,1.956,1.956,0,0,0,.506.233.473.473,0,0,0,.2.48.54.54,0,0,0,.2.844Z" transform="translate(0 0)" fill="#fff"/></g><g transform="translate(8.091 9.501)"><path d="M.081,1.117A.741.741,0,0,1,.538.067c.812-.28,2.931.371,3.184.881s.252,1.092-.469,1.173S1.464,1.235.081,1.117Z" transform="translate(0.11 0.114)" fill="#fff"/><path d="M3.274,2.357a3.2,3.2,0,0,1-1.208-.4A5.6,5.6,0,0,0,.18,1.347L.112,1.341.084,1.28A1.006,1.006,0,0,1,.059.538.864.864,0,0,1,.61.071c.823-.284,3.029.34,3.327.94a1.07,1.07,0,0,1,.082.974.775.775,0,0,1-.642.368A.894.894,0,0,1,3.274,2.357Zm-3-1.236a5.948,5.948,0,0,1,1.894.623,2.648,2.648,0,0,0,1.185.375.558.558,0,0,0,.463-.247.865.865,0,0,0-.082-.758A4.164,4.164,0,0,0,.686.291.643.643,0,0,0,.274.626a.732.732,0,0,0,0,.5Z" transform="translate(0 0)" fill="#fff"/></g><g transform="translate(7.146 12.065)"><path d="M2.076,1.3A.539.539,0,0,0,2.343.771,2.236,2.236,0,0,0,.494.006C-.255.17.07,1.135.07,1.135a1.576,1.576,0,0,0,1.173.83c.082.011-.322-.673-.236-.659A2.59,2.59,0,0,0,2.076,1.3Z" transform="translate(0.051 0.055)" fill="#fff"/><path d="M1.327,2.075H1.286A1.616,1.616,0,0,1,.072,1.208a1.258,1.258,0,0,1,.023-.9.635.635,0,0,1,.441-.3A2.38,2.38,0,0,1,2.219.544c.152.119.231.213.232.281a.585.585,0,0,1-.3.581h0a2.353,2.353,0,0,1-1.033.016c.024.065.075.172.112.247.128.27.152.329.12.378ZM.773.092A.988.988,0,0,0,.558.114.529.529,0,0,0,.19.367a1.167,1.167,0,0,0-.016.8,1.541,1.541,0,0,0,1.057.79c-.025-.063-.072-.165-.107-.236C.994,1.447.967,1.379,1,1.333L1.024,1.3h.043a2.455,2.455,0,0,0,1.041,0h0A.487.487,0,0,0,2.34.822C2.34.8,2.264.7,2.061.559A2.481,2.481,0,0,0,.773.092Z" transform="translate(0 0)" fill="#fff"/></g><g transform="translate(4.025 14.025)"><path d="M17.38,13.05S16.1,8.365,13.528,7.073l-.953-.021s-2.1-1.662-2.914-2.518S6.5,1.142,5.8.659a6.34,6.34,0,0,0-3.8-.582.5.5,0,0,0-.194.906,1.609,1.609,0,0,0,.947.277s1.248.225,1.679.3l.747.988A4.6,4.6,0,0,0,1.135,3.706S-.113,4.06.008,4.771s1.126.609,1.126.609a8.226,8.226,0,0,0,1.932-.627,4.554,4.554,0,0,1,1.6.059,3.657,3.657,0,0,1,1.3.682A5.687,5.687,0,0,0,4.347,5.44,7.829,7.829,0,0,0,2.1,6.186c-.659.3-.4,1.126,0,1.153A9.731,9.731,0,0,0,3.512,7.02a3.117,3.117,0,0,1,2.5.12c.315.156,1.1,1.983,2.2,2.743a3.991,3.991,0,0,0,2.815.445,4.909,4.909,0,0,1,1.771.564C14.128,11.481,17.38,13.05,17.38,13.05Z" transform="translate(0.102 0.101)" fill="#fff"/><path d="M17.639,13.339l-.2-.1c-.033-.016-3.266-1.574-4.582-2.156a5.023,5.023,0,0,0-1.729-.556,4.028,4.028,0,0,1-2.882-.464A7.1,7.1,0,0,1,6.561,8.018a3.181,3.181,0,0,0-.494-.687,2.625,2.625,0,0,0-2.08-.189c-.124.031-.24.062-.353.082a4.549,4.549,0,0,0-.7.18,2.021,2.021,0,0,1-.734.141.586.586,0,0,1-.487-.521A.734.734,0,0,1,2.156,6.2a7.9,7.9,0,0,1,2.281-.76,5.816,5.816,0,0,1,1.244,0,3.368,3.368,0,0,0-.936-.426,4.489,4.489,0,0,0-1.565-.057,8.07,8.07,0,0,1-1.938.627C.867,5.62.119,5.522.01,4.888c-.126-.741,1-1.119,1.178-1.173A4.892,4.892,0,0,1,5.045,2.5l-.563-.746L2.842,1.46a1.684,1.684,0,0,1-.988-.292A.588.588,0,0,1,1.606.542.586.586,0,0,1,2.091.077a6.457,6.457,0,0,1,3.87.6A45.393,45.393,0,0,1,9.451,4.156l.385.412c.748.79,2.63,2.292,2.877,2.488l.962.03c2.587,1.3,3.852,5.846,3.9,6.041Zm-6.511-3.01a5.249,5.249,0,0,1,1.812.571c1.124.494,3.641,1.7,4.38,2.059-.288-.931-1.536-4.572-3.714-5.682l-.965-.026-.027-.021C12.593,7.214,10.5,5.554,9.689,4.7L9.3,4.29A45.8,45.8,0,0,0,5.846.843,6.209,6.209,0,0,0,2.123.278a.386.386,0,0,0-.319.3.389.389,0,0,0,.165.412,1.516,1.516,0,0,0,.888.259c.021,0,1.268.226,1.7.3l.04.007.955,1.272-.294-.082a4.548,4.548,0,0,0-3.952,1.14l-.038.021c-.012,0-1.158.338-1.054.949s1.006.525,1.016.525a8.342,8.342,0,0,0,1.9-.623A4.544,4.544,0,0,1,4.8,4.813a3.724,3.724,0,0,1,1.343.7l.3.252-.381-.078a5.663,5.663,0,0,0-1.593-.049,7.735,7.735,0,0,0-2.223.741.534.534,0,0,0-.329.6c.035.194.165.347.3.355a1.913,1.913,0,0,0,.659-.132A4.765,4.765,0,0,1,3.6,7.021c.1-.016.215-.044.334-.075a2.833,2.833,0,0,1,2.223.2c.136.068.291.307.576.761A6.957,6.957,0,0,0,8.372,9.9a3.915,3.915,0,0,0,2.735.43Z" transform="translate(0 0)" fill="#fff"/></g><g transform="translate(5.243 17.29)"><path d="M6.238,1.274A5.673,5.673,0,0,0,2.766.214C1.07.462.048.644.037.646L0,.437C.01.435,1.036.253,2.735,0A5.8,5.8,0,0,1,6.363,1.1Z" transform="translate(0 0)" fill="#fff"/></g><g transform="translate(8.269 16.516)"><path d="M3.412,1.286A6.284,6.284,0,0,0,1.625.417,5.086,5.086,0,0,0,.019.216L0,0A5.247,5.247,0,0,1,1.68.212a6.379,6.379,0,0,1,1.861.9Z" transform="translate(0 0)" fill="#fff"/></g></g></g></g></g></svg>